<?xml version="1.0" encoding="UTF-8" standalone="no"?>
<svg
   xmlns:dc="http://purl.org/dc/elements/1.1/"
   xmlns:cc="http://creativecommons.org/ns#"
   xmlns:rdf="http://www.w3.org/1999/02/22-rdf-syntax-ns#"
   xmlns:svg="http://www.w3.org/2000/svg"
   xmlns="http://www.w3.org/2000/svg"
   xmlns:sodipodi="http://sodipodi.sourceforge.net/DTD/sodipodi-0.dtd"
   xmlns:inkscape="http://www.inkscape.org/namespaces/inkscape"
   width="171.37833"
   height="171.37833"
   viewBox="-210.022 -210.194 428.4458 93.547573"
   version="1.1"
   id="svg23"
   sodipodi:docname="icon.svg"
   inkscape:version="0.92.5 (2060ec1f9f, 2020-04-08)"
   inkscape:export-filename="/home/axel/projects/Two-Tired/app/src/assets/icon.png"
   inkscape:export-xdpi="573.60809"
   inkscape:export-ydpi="573.60809">
  <metadata
     id="metadata29">
    <rdf:RDF>
      <cc:Work
         rdf:about="">
        <dc:format>image/svg+xml</dc:format>
        <dc:type
           rdf:resource="http://purl.org/dc/dcmitype/StillImage" />
        <dc:title></dc:title>
      </cc:Work>
    </rdf:RDF>
  </metadata>
  <defs
     id="defs27" />
  <sodipodi:namedview
     pagecolor="#ffffff"
     bordercolor="#666666"
     borderopacity="1"
     objecttolerance="10"
     gridtolerance="10"
     guidetolerance="10"
     inkscape:pageopacity="0"
     inkscape:pageshadow="2"
     inkscape:window-width="1920"
     inkscape:window-height="1031"
     id="namedview25"
     showgrid="false"
     inkscape:zoom="1.2291667"
     inkscape:cx="-56.948573"
     inkscape:cy="131.52303"
     inkscape:window-x="0"
     inkscape:window-y="25"
     inkscape:window-maximized="1"
     inkscape:current-layer="svg23" />
  <path
     d="m -18.299098,46.187846 q 4,-16 22.5000004,-21.5 18.4999996,5.5 22.4999996,21.5 l 7.68857,-0.9713 q -0.104705,-16.49209 16.446289,-26.42006 19.286583,0.72645 27.139953,15.22902 l 7.20547,-2.85285 q -4.202832,-15.94792 9.359196,-29.6800491 18.86132,-4.09276 30.0746,8.0011403 l 6.26962,-4.5551503 q -8.03687,-14.40169 1.68403,-31.0751409 17.25093,-8.65479 31.11956,0.27052 l 4.93983,-5.97123 q -11.36594,-11.95054 -6.09694,-30.51766 14.55659,-12.67301 30.20915,-7.47709 l 3.29965,-7.01212 q -13.98083,-8.7485 -13.49483,-28.042646 10.94762,-15.89495 27.4006,-14.75491 l 1.45214,-7.61241 q -15.71726,-4.99675 -20.04479,-23.8056 6.65077,-18.11814 22.87036,-21.1056 l -0.4866,-7.73439 q -16.46612,-0.93104 -25.33526,-18.07276 1.93603,-19.20291 16.9031,-26.13016 l -2.39478,-7.37039 q -16.18035,3.19316 -29.03382,-11.20435 -2.90037,-19.08109 9.87375,-29.51287 l -4.15249,-6.54327 q -14.8779,7.11674 -30.90807,-3.63193 -7.55452,-17.76032 2.22399,-31.04116 l -5.64927,-5.30502 q -12.64063,10.59313 -30.84026,4.1687 -11.734,-15.32362 -5.5655,-30.61904 l -6.7911,-3.73343 q -9.609096,13.40392 -28.834646,11.70739 -15.17618,-11.92408 -13.005293,-28.273 l -7.506208,-1.92727 q -5.973791,15.37251 -25.017245,18.51047 -17.66479,-7.77529 -19.6279166,-24.15046 H 0.32606339 q -1.96312699,16.37517 -19.62791739,24.15046 -19.043454,-3.13796 -25.017245,-18.51047 l -7.506208,1.92727 q 2.170887,16.34892 -13.005293,28.273 -19.22555,1.69653 -28.834649,-11.70739 l -6.791101,3.73343 q 6.168502,15.29542 -5.5655,30.61904 -18.19963,6.42443 -30.84026,-4.1687 l -5.64927,5.30502 q 9.77851,13.28084 2.22399,31.04116 -16.03017,10.74867 -30.90807,3.63193 l -4.15249,6.54327 q 12.77412,10.43178 9.87375,29.51287 -12.85347,14.39751 -29.03382,11.20435 l -2.39478,7.37039 q 14.96707,6.92725 16.9031,26.13016 -8.86914,17.14172 -25.33526,18.07276 l -0.4866,7.73439 q 16.21959,2.98746 22.87036,21.1056 -4.32753,18.80885 -20.04479,23.8056 l 1.45214,7.61241 q 16.45298,-1.14004 27.4006,14.75491 0.486,19.294146 -13.49483,28.042646 l 3.29965,7.01212 q 15.65256,-5.19592 30.20915,7.47709 5.269,18.56712 -6.09694,30.51766 l 4.93983,5.97123 q 13.86863,-8.92531 31.11956,-0.27052 9.7209,16.6734509 1.68403,31.0751409 l 6.26962,4.5551503 q 11.21328,-12.0939003 30.074604,-8.0011403 13.562028,13.7321291 9.359196,29.6800491 l 7.20547,2.85285 q 7.85337,-14.50257 27.139953,-15.22902 16.550994,9.92797 16.446289,26.42006 z"
     stroke-miterlimit="10"
     id="path2"
     inkscape:connector-curvature="0"
     style="fill:#323232;fill-rule:evenodd;stroke:#007aff;stroke-width:8.40089989;stroke-linejoin:round;stroke-miterlimit:10" />
  <path
     d="m -18.299098,29.446356 q 4,-16 22.5000004,-21.499999 18.4999996,5.499999 22.4999996,21.499999 l 7.697372,-1.05798 q -0.46508,-16.48587 15.865008,-26.773149 19.297852,0.3048 27.466269,14.632289 l 7.126493,-3.09547 q -4.895665,-15.749049 8.053382,-30.06066 18.664474,-4.91299 30.395494,6.679381 l 6.02707,-4.903391 q -8.96316,-13.84419 -0.35553,-31.1187 16.64683,-9.76642 31.07042,-1.76892 l 4.48066,-6.34764 q -12.36591,-10.91258 -8.73807,-29.86881 13.39457,-13.89552 29.44099,-10.08602 l 2.60193,-7.321116 q -14.85152,-7.17164 -16.47255,-26.4037 9.1489,-16.99405 25.62807,-17.65509 l 0.53023,-7.75162 q -16.23567,-2.8988 -22.98534,-20.98034 4.2247,-18.8322 19.91443,-23.91476 l -1.5808,-7.60723 q -16.41569,1.58903 -27.7934,-14.00096 -1.01284,-19.27366 12.72382,-28.40078 l -3.57459,-6.89863 q -15.37824,5.959 -30.54016,-5.9832 -6.17525,-18.28569 4.58955,-30.78045 l -5.30326,-5.67841 q -13.20026,9.88703 -31.0219,2.47832 -10.87967,-15.94154 -3.88511,-30.87727 l -6.63862,-4.03704 q -10.043259,13.08178 -29.202874,10.75602 -14.777203,-12.41508 -12.07163,-28.68407 l -7.481617,-2.09625 q -6.14141,15.30631 -25.218016,18.236 -17.5787736,-7.96785 -19.3628506,-24.36349 H 0.31603239 q -1.78407699,16.39564 -19.36285139,24.36349 -19.076606,-2.92969 -25.218016,-18.236 l -7.481617,2.09625 q 2.705573,16.26899 -12.07163,28.68407 -19.159615,2.32576 -29.202878,-10.75602 l -6.638618,4.03704 q 6.994564,14.93573 -3.885112,30.87727 -17.82164,7.40871 -31.0219,-2.47832 l -5.30326,5.67841 q 10.7648,12.49476 4.58955,30.78045 -15.16192,11.9422 -30.54016,5.9832 l -3.57459,6.89863 q 13.73666,9.12712 12.72382,28.40078 -11.37771,15.58999 -27.7934,14.00096 l -1.5808,7.60723 q 15.68973,5.08256 19.91443,23.91476 -6.74967,18.08154 -22.98534,20.98034 l 0.53023,7.75162 q 16.47917,0.66104 25.62807,17.65509 -1.62103,19.23206 -16.47255,26.4037 l 2.60193,7.321116 q 16.04642,-3.8095 29.44099,10.08602 3.62784,18.95623 -8.73807,29.86881 l 4.48066,6.34764 q 14.42359,-7.9975 31.07042,1.76892 8.60763,17.27451 -0.35553,31.1187 l 6.02707,4.903391 q 11.73102,-11.592371 30.395498,-6.679381 12.949047,14.311611 8.053382,30.06066 l 7.126493,3.09547 Q -61.15933,1.920027 -41.861478,1.615227 -25.53139,11.902506 -25.99647,28.388376 Z"
     stroke=""
     stroke-miterlimit="10"
     id="path4"
     inkscape:connector-curvature="0"
     style="fill:#4f4f4f;fill-rule:evenodd;stroke-width:8.40089989;stroke-linejoin:round;stroke-miterlimit:10" />
  <path
     d="m -18.299098,12.714456 q 4,-15.9999995 22.5000004,-21.4999995 18.4999996,5.5 22.4999996,21.4999995 l 7.71078,-1.16221 q -0.893791,-16.4681795 15.163152,-27.17681 19.299251,-0.19732 27.837625,13.9128305 l 7.025643,-3.38337 q -5.708166,-15.4731015 6.478991,-30.4388415 18.383677,-5.8771 30.701757,5.08943 l 5.71624,-5.3039 q -10.01534,-13.10316 -2.78085,-30.996229 15.83463,-11.03469 30.83789,-4.186181 l 3.89894,-6.753159 q -13.43261,-9.56895 -11.79361,-28.799486 11.87861,-15.21179 28.23396,-13.08983 l 1.73519,-7.60237 q -15.65634,-5.18449 -19.75846,-24.04378 6.86713,-18.03725 23.12131,-20.83039 l -0.58273,-7.77607 q -16.48893,-0.33938 -25.96767,-17.15168 1.24546,-19.26003 15.95422,-26.72008 l -2.84888,-7.25883 q -15.85641,4.53589 -29.86955,-8.73558 -4.48686,-18.77147 7.36955,-30.23557 l -4.8619,-6.09662 q -13.81497,9.00813 -31.11738,0.45672 -9.820504,-16.61498 -1.86995,-31.0645 l -6.4429,-4.3927 q -10.546021,12.67997 -29.600305,9.60845 -14.281564,-12.98218 -10.943299,-29.13322 l -7.451439,-2.29846 q -6.339999,15.22512 -25.453102,17.90641 -17.4736376,-8.19585 -19.0442846,-24.61331 H 0.30196439 q -1.57064699,16.41746 -19.04428539,24.61331 -19.113103,-2.68129 -25.453102,-17.90641 l -7.451439,2.29846 q 3.338265,16.15104 -10.943299,29.13322 -19.054284,3.07152 -29.6003,-9.60845 l -6.442907,4.3927 q 7.950556,14.44952 -1.869952,31.0645 -17.30241,8.55141 -31.11738,-0.45672 l -4.8619,6.09662 q 11.85641,11.4641 7.36955,30.23557 -14.01314,13.27147 -29.86955,8.73558 l -2.84888,7.25883 q 14.70876,7.46005 15.95422,26.72008 -9.47874,16.8123 -25.96767,17.15168 l -0.58273,7.77607 q 16.25418,2.79314 23.12131,20.83039 -4.10212,18.85929 -19.75846,24.04378 l 1.73519,7.60237 q 16.35535,-2.12196 28.23396,13.08983 1.639,19.230535 -11.79361,28.799485 l 3.89894,6.75316 q 15.00326,-6.84851 30.83789,4.18618 7.23449,17.89307 -2.78085,30.99623 l 5.71624,5.3039 q 12.31808,-10.96653 30.701761,-5.08943 12.187157,14.96574 6.478991,30.4388415 l 7.025643,3.38337 q 8.538374,-14.1101515 27.837625,-13.9128315 16.056943,10.7086315 15.163152,27.17681 z"
     stroke=""
     stroke-miterlimit="10"
     id="path6"
     inkscape:connector-curvature="0"
     style="fill:#6c6c6c;fill-rule:evenodd;stroke-width:8.40089989;stroke-linejoin:round;stroke-miterlimit:10" />
  <path
     d="m -18.299098,-4.004906 q 4,-16.000001 22.5000004,-21.500001 18.4999996,5.5 22.4999996,21.500001 l 7.731214,-1.29011 q -1.411923,-16.431871 14.299849,-27.640811 19.283466,-0.80494 28.261926,13.02934 l 6.893417,-3.73053 q -6.670841,-15.0831 4.550088,-30.78631 17.977264,-7.02266 30.961234,3.14673 l 5.30861,-5.766679 q -11.20687,-12.09984 -5.69275,-30.59563 14.72296,-12.479374 30.30542,-7.076861 l 3.14853,-7.177943 q -14.52846,-7.80537 -15.31868,-27.08944 9.87318,-16.58374 26.36553,-16.53357 l 0.64727,-7.81135 q -16.27567,-2.66506 -23.28461,-20.64769 3.9535,-18.891 19.56853,-24.19861 l -1.92414,-7.59827 q -16.25915,2.76403 -28.72727,-11.96845 -2.39461,-19.15113 10.65098,-29.24135 l -4.28705,-6.56181 q -14.4807,7.89361 -31.05689,-1.99223 -8.48323,-17.33594 0.57922,-31.11535 l -6.185368,-4.81426 q -11.133054,12.16779 -30.021029,8.19987 -13.652553,-13.64214 -9.55529,-29.61751 l -7.413425,-2.54503 q -6.578958,15.1234 -25.731913,17.50339 -17.3424136,-8.46999 -18.6543446,-24.91015 H 0.28184439 q -1.31193099,16.44016 -18.65434539,24.91015 -19.152955,-2.37999 -25.731913,-17.50339 l -7.413425,2.54503 q 4.097263,15.97537 -9.55529,29.61751 -18.887975,3.96792 -30.021029,-8.19987 l -6.18537,4.81426 q 9.062452,13.77941 0.57922,31.11535 -16.576192,9.88584 -31.056892,1.99223 l -4.28705,6.56181 q 13.04559,10.09022 10.65098,29.24135 -12.46812,14.73248 -28.72727,11.96845 l -1.92414,7.59827 q 15.61503,5.30761 19.56853,24.19861 -7.00894,17.98263 -23.28461,20.64769 l 0.64727,7.81135 q 16.49235,-0.0502 26.36553,16.53357 -0.79022,19.28407 -15.31868,27.08944 l 3.14853,7.177943 q 15.58246,-5.402513 30.30542,7.076861 5.51412,18.49579 -5.69275,30.59563 l 5.30861,5.766679 q 12.983972,-10.16939 30.961238,-3.14673 11.220929,15.70321 4.550088,30.78631 l 6.893417,3.73053 q 8.97846,-13.83428 28.261926,-13.02934 15.711772,11.20894 14.299849,27.640811 z"
     stroke=""
     stroke-miterlimit="10"
     id="path8"
     inkscape:connector-curvature="0"
     style="fill:#7b7b7b;fill-rule:evenodd;stroke-width:8.40089989;stroke-linejoin:round;stroke-miterlimit:10" />
  <path
     d="m -18.299098,-13.170854 q 4,-16 22.5000004,-21.5 18.4999996,5.5 22.4999996,21.5 l 7.745225,-1.36569 q -1.713551,-16.40316 13.789651,-27.89884 19.265424,-1.15906 28.496517,12.50794 l 6.811037,-3.93236 q -7.220424,-14.82786 3.416066,-30.93267 17.707152,-7.67833 31.055932,2.00723 l 5.05534,-6.02471 q -11.85641,-11.46411 -7.36955,-30.23558 14.01314,-13.271466 29.86955,-8.735566 l 2.68988,-7.3904 q -15.06233,-6.71761 -17.26628,-25.89161 8.62894,-17.26388 25.08045,-18.42474 v -7.86471 q -16.45151,-1.16086 -25.08045,-18.42474 2.20395,-19.17401 17.26628,-25.89161 l -2.68988,-7.39041 q -15.85641,4.5359 -29.86955,-8.73557 -4.48686,-18.77147 7.36955,-30.23557 l -5.05534,-6.02472 q -13.34878,9.68556 -31.055932,2.00724 -10.63649,-16.10482 -3.416066,-30.93268 l -6.811037,-3.93236 q -9.231093,13.667 -28.496517,12.50794 -15.503202,-11.49568 -13.789651,-27.89884 l -7.745225,-1.36569 q -4,16 -22.4999996,21.5 -18.5000004,-5.5 -22.5000004,-21.5 l -7.745225,1.36569 q 1.713551,16.40316 -13.789651,27.89884 -19.265424,1.15906 -28.496517,-12.50794 l -6.811037,3.93236 q 7.220424,14.82786 -3.416066,30.93268 -17.707154,7.67832 -31.055936,-2.00724 l -5.05534,6.02472 q 11.85641,11.4641 7.36955,30.23557 -14.01314,13.27147 -29.86955,8.73557 l -2.68988,7.39041 q 15.06233,6.7176 17.26628,25.89161 -8.62894,17.26388 -25.08045,18.42474 v 7.86471 q 16.45151,1.16086 25.08045,18.42474 -2.20395,19.174 -17.26628,25.89161 l 2.68988,7.3904 q 15.85641,-4.5359 29.86955,8.735566 4.48686,18.77147 -7.36955,30.23558 l 5.05534,6.02471 q 13.348782,-9.68556 31.055936,-2.00723 10.63649,16.10481 3.416066,30.93267 l 6.811037,3.93236 q 9.231093,-13.667 28.496517,-12.50794 15.503202,11.49568 13.789651,27.89884 z"
     stroke=""
     stroke-miterlimit="10"
     id="path10"
     inkscape:connector-curvature="0"
     style="fill:#989898;fill-rule:evenodd;stroke-width:8.40089989;stroke-linejoin:round;stroke-miterlimit:10" />
  <path
     d="m -18.299098,-20.707436 q 4,-15.99999 22.5000004,-21.49999 18.4999996,5.5 22.4999996,21.49999 l 7.762681,-1.45109 q -2.049978,-16.36452 13.213929,-28.17609 19.237566,-1.55438 28.747321,11.92021 l 6.714288,-4.15731 q -7.823095,-14.51892 2.143244,-31.04684 17.376995,-8.39882 31.112155,0.73054 l 4.75909,-6.30206 q -12.53966,-10.71246 -9.21689,-29.724554 13.16955,-14.10896 29.27512,-10.5578 l 2.16116,-7.59567 q -15.56268,-5.45923 -19.33225,-24.38779 7.1835,-17.91361 23.48432,-20.42025 l -0.72866,-7.86346 q -16.48386,0.53131 -26.83666,-15.75732 0.22727,-19.29892 14.52183,-27.52483 l -3.52006,-7.06923 q -15.17881,6.45008 -30.71665,-4.99875 -6.759643,-18.07781 3.59809,-30.91203 l -5.836057,-5.32027 q -11.823783,11.49774 -30.448177,6.43494 -12.83364,-14.41519 -7.811594,-30.12439 l -7.363868,-2.85278 q -6.871885,14.99257 -26.067509,16.99956 -17.1743796,-8.80572 -18.1662806,-25.26829 H 0.25233039 q -0.991901,16.46257 -18.16628139,25.26829 -19.195624,-2.00699 -26.067509,-16.99956 l -7.363868,2.85278 q 5.022046,15.7092 -7.811594,30.12439 -18.624394,5.0628 -30.448177,-6.43494 l -5.836061,5.32027 q 10.357737,12.83422 3.598091,30.91203 -15.537841,11.44883 -30.716651,4.99875 l -3.52006,7.06923 q 14.29456,8.22591 14.52183,27.52483 -10.3528,16.28863 -26.83666,15.75732 l -0.72866,7.86346 q 16.30082,2.50664 23.48432,20.42025 -3.76957,18.92856 -19.33225,24.38779 l 2.16116,7.59567 q 16.10557,-3.55116 29.27512,10.5578 3.32277,19.012094 -9.21689,29.724554 l 4.75909,6.30206 q 13.735168,-9.12936 31.112159,-0.73054 9.966339,16.52792 2.143244,31.04684 l 6.714288,4.15731 q 9.509755,-13.47459 28.747321,-11.92021 15.263907,11.81157 13.213929,28.17609 z"
     stroke=""
     stroke-miterlimit="10"
     id="path12"
     inkscape:connector-curvature="0"
     style="fill:#a7a7a7;fill-rule:evenodd;stroke-width:8.40089989;stroke-linejoin:round;stroke-miterlimit:10" />
  <path
     d="m -18.299098,-29.963074 q 4,-16 22.5000004,-21.5 18.4999996,5.5 22.4999996,21.5 l 7.784549,-1.54844 q -2.427417,-16.3128 12.559595,-28.47379 19.196531,-1.9983 29.014984,11.25304 l 6.599421,-4.40959 q -8.485281,-14.14214 0.707107,-31.1127 16.970562,-9.19239 31.112702,-0.70711 l 4.40959,-6.59942 q -13.25134,-9.818446 -11.25304,-29.014976 12.16099,-14.98702 28.47379,-12.5596 l 1.54844,-7.78455 q -16,-4 -21.5,-22.5 5.5,-18.5 21.5,-22.5 l -1.54844,-7.78455 q -16.3128,2.42742 -28.47379,-12.55959 -1.9983,-19.19653 11.25304,-29.01499 l -4.40959,-6.59942 q -14.14214,8.48528 -31.112702,-0.7071 -9.192388,-16.97057 -0.707107,-31.11271 l -6.599421,-4.40959 q -9.818453,13.25134 -29.014984,11.25304 -14.987012,-12.16099 -12.559595,-28.47379 l -7.784549,-1.54844 q -4,16 -22.4999996,21.5 -18.5000004,-5.5 -22.5000004,-21.5 l -7.784549,1.54844 q 2.427417,16.3128 -12.559595,28.47379 -19.196531,1.9983 -29.014984,-11.25304 l -6.599421,4.40959 q 8.485281,14.14214 -0.707107,31.11271 -16.970563,9.19238 -31.112706,0.7071 l -4.40959,6.59942 q 13.251342,9.81846 11.253042,29.01499 -12.160992,14.98701 -28.473792,12.55959 l -1.54844,7.78455 q 16,4 21.5,22.5 -5.5,18.5 -21.5,22.5 l 1.54844,7.78455 q 16.3128,-2.42742 28.473792,12.5596 1.9983,19.19653 -11.253042,29.014976 l 4.40959,6.59942 q 14.142143,-8.48528 31.112706,0.70711 9.192388,16.97056 0.707107,31.1127 l 6.599421,4.40959 q 9.818453,-13.25134 29.014984,-11.25304 14.987012,12.16099 12.559595,28.47379 z"
     stroke=""
     stroke-miterlimit="10"
     id="path14"
     inkscape:connector-curvature="0"
     style="fill:#c4c4c4;fill-rule:evenodd;stroke-width:8.40089989;stroke-linejoin:round;stroke-miterlimit:10" />
  <path
     d="m -18.299098,-37.386616 q 4,-16 22.5000004,-21.5 18.4999996,5.5 22.4999996,21.5 l 7.812133,-1.66052 q -2.853605,-16.24367 11.809935,-28.79279 19.137642,-2.50013 29.29961,10.48964 l 6.461344,-4.69444 q -9.213795,-13.67866 -0.922175,-31.10706 16.466213,-10.067964 31.033051,-2.33445 l 3.99333,-6.916654 q -13.98083,-8.7485 -13.49483,-28.04264 10.94762,-15.89495 27.40059,-14.7549 l 0.83484,-7.94291 q -16.33047,-2.30563 -23.73411,-20.12938 3.53609,-18.97356 19.03033,-24.62411 l -2.46802,-7.59576 q -15.8564,4.5359 -29.869541,-8.73557 -4.486861,-18.77147 7.369551,-30.23558 l -5.344124,-5.93524 q -12.640632,10.59313 -30.840265,4.1687 -11.733996,-15.32362 -5.5655,-30.61904 l -7.296177,-3.24847 q -7.239177,14.81872 -26.478422,16.35216 Q 8.7802354,-272.9718 8.1942324,-289.45381 H 0.20757239 q -0.586003,16.48201 -17.53822039,25.70818 -19.239245,-1.53344 -26.478422,-16.35216 l -7.296177,3.24847 q 6.168496,15.29542 -5.5655,30.61904 -18.199633,6.42443 -30.840265,-4.1687 l -5.344119,5.93524 q 11.856407,11.46411 7.369546,30.23558 -14.013143,13.27147 -29.869545,8.73557 l -2.46802,7.59576 q 15.49424,5.65055 19.030332,24.62411 -7.403642,17.82375 -23.734112,20.12938 l 0.83484,7.94291 q 16.45297,-1.14005 27.400595,14.7549 0.486004,19.29414 -13.494835,28.04264 l 3.99333,6.916654 q 14.566842,-7.733514 31.033055,2.33445 8.29162,17.4284 -0.922175,31.10706 l 6.461344,4.69444 q 10.161968,-12.98977 29.29961,-10.48964 14.66354,12.54912 11.809935,28.79279 z"
     stroke=""
     stroke-miterlimit="10"
     id="path16"
     inkscape:connector-curvature="0"
     style="fill:#d3d3d3;fill-rule:evenodd;stroke-width:8.40089989;stroke-linejoin:round;stroke-miterlimit:10" />
  <path
     d="m -18.299098,-46.755293 q 4,-16 22.5000004,-21.49999 18.4999996,5.49999 22.4999996,21.49999 l 7.847214,-1.79107 q -3.338264,-16.15104 10.943299,-29.13321 19.054285,-3.07152 29.6003,9.60844 l 6.292977,-5.01848 q -10.015344,-13.10316 -2.780856,-30.996237 15.834634,-11.03469 30.837894,-4.18618 l 3.49234,-7.25191 q -14.708761,-7.46005 -15.954227,-26.72008 9.478737,-16.8123 25.967667,-17.15168 v -8.04902 q -16.48893,-0.33937 -25.967667,-17.15168 1.245466,-19.26003 15.954227,-26.72007 l -3.49234,-7.25192 q -15.00326,6.84851 -30.837894,-4.18618 -7.234488,-17.89307 2.780856,-30.99624 l -6.292977,-5.01848 q -10.546015,12.67997 -29.6003,9.60845 -14.281563,-12.98218 -10.943299,-29.13322 l -7.847214,-1.79107 q -4,16 -22.4999996,21.5 -18.5000004,-5.5 -22.5000004,-21.5 l -7.847214,1.79107 q 3.338264,16.15104 -10.943299,29.13322 -19.054285,3.07152 -29.6003,-9.60845 l -6.292977,5.01848 q 10.015344,13.10317 2.780856,30.99624 -15.834634,11.03469 -30.837898,4.18618 l -3.49234,7.25192 q 14.708765,7.46004 15.954231,26.72007 -9.478739,16.81231 -25.967671,17.15168 v 8.04902 q 16.488932,0.33938 25.967671,17.15168 -1.245466,19.26003 -15.954231,26.72008 l 3.49234,7.25191 q 15.003264,-6.84851 30.837898,4.18618 7.234488,17.893077 -2.780856,30.996237 l 6.292977,5.01848 q 10.546015,-12.67996 29.6003,-9.60844 14.281563,12.98217 10.943299,29.13321 z"
     stroke=""
     stroke-miterlimit="10"
     id="path18"
     inkscape:connector-curvature="0"
     style="fill:#f0f0f0;fill-rule:evenodd;stroke-width:8.40089989;stroke-linejoin:round;stroke-miterlimit:10" />
  <path
     d="m -18.299098,-54.032146 q 4,-15.99999 22.5000004,-21.49999 18.4999996,5.5 22.4999996,21.49999 l 7.892266,-1.94527 q -3.893746,-16.02618 9.931213,-29.49357 18.936913,-3.72737 29.914308,8.58104 l 6.084243,-5.39017 q -10.895482,-12.38098 -4.912696,-30.730534 15.035609,-12.10085 30.475604,-6.30375 l 2.8824,-7.60024 q -15.401196,-5.89943 -18.631166,-24.92749 7.689827,-17.70217 24.055316,-19.74441 l -0.97978,-8.0692 q -16.378678,1.93361 -28.081457,-13.41386 -1.417601,-19.24813 12.124239,-28.66187 l -4.617494,-6.6896 q -13.604006,9.32368 -31.098629,1.17272 -10.200275,-16.38458 -2.584355,-31.01324 l -7.197398,-3.77748 q -7.712818,14.5778 -26.991478,15.49064 -16.6461866,-9.76752 -16.7009036,-26.25985 H 0.13667039 q -0.054717,16.49233 -16.70090439,26.25985 -19.27866,-0.91284 -26.991478,-15.49064 l -7.197398,3.77748 q 7.61592,14.62866 -2.584355,31.01324 -17.494623,8.15096 -31.098629,-1.17272 l -4.617494,6.6896 q 13.54184,9.41374 12.124239,28.66187 -11.702779,15.34747 -28.081461,13.41386 l -0.97978,8.0692 q 16.365493,2.04224 24.05532,19.74441 -3.22997,19.02806 -18.63117,24.92749 l 2.882402,7.60024 q 15.439997,-5.7971 30.475606,6.30375 5.982786,18.349554 -4.912696,30.730534 l 6.084243,5.39017 q 10.977395,-12.30841 29.914308,-8.58104 13.824959,13.46739 9.931213,29.49357 z"
     stroke=""
     stroke-miterlimit="10"
     id="path20"
     inkscape:connector-curvature="0"
     style="opacity:0.98999999;fill:#ffffff;fill-rule:evenodd;stroke-width:8.40089989;stroke-linejoin:round;stroke-miterlimit:10" />
  <text
     xml:space="preserve"
     style="font-style:normal;font-variant:normal;font-weight:normal;font-stretch:normal;font-size:300px;line-height:1.25;font-family:sans-serif;-inkscape-font-specification:'sans-serif, Normal';font-variant-ligatures:normal;font-variant-caps:normal;font-variant-numeric:normal;font-feature-settings:normal;text-align:start;letter-spacing:0px;word-spacing:0px;writing-mode:lr-tb;text-anchor:start;fill:#007aff;fill-opacity:1;stroke:none;stroke-width:2.5"
     x="-78.10379"
     y="-106.27177"
     id="text842"><tspan
       sodipodi:role="line"
       id="tspan840"
       x="-78.10379"
       y="-106.27177"
       style="font-style:normal;font-variant:normal;font-weight:normal;font-stretch:normal;font-size:160px;font-family:'Open Sans Condensed';-inkscape-font-specification:'Open Sans Condensed, ';fill:#007aff;fill-opacity:1;stroke-width:2.5">GC</tspan></text>
</svg>
