<?xml version="1.0" encoding="UTF-8" standalone="no"?>
<svg
   xmlns:dc="http://purl.org/dc/elements/1.1/"
   xmlns:cc="http://creativecommons.org/ns#"
   xmlns:rdf="http://www.w3.org/1999/02/22-rdf-syntax-ns#"
   xmlns:svg="http://www.w3.org/2000/svg"
   xmlns="http://www.w3.org/2000/svg"
   xmlns:sodipodi="http://sodipodi.sourceforge.net/DTD/sodipodi-0.dtd"
   xmlns:inkscape="http://www.inkscape.org/namespaces/inkscape"
   width="1242"
   height="2436"
   viewBox="-210.022 -210.194 3104.9999 1329.7007"
   version="1.1"
   id="svg23"
   sodipodi:docname="splash.svg"
   inkscape:version="0.92.5 (2060ec1f9f, 2020-04-08)"
   inkscape:export-filename="/home/axel/projects/Two-Tired/app/src/assets/splash.png"
   inkscape:export-xdpi="96"
   inkscape:export-ydpi="96">
  <metadata
     id="metadata29">
    <rdf:RDF>
      <cc:Work
         rdf:about="">
        <dc:format>image/svg+xml</dc:format>
        <dc:type
           rdf:resource="http://purl.org/dc/dcmitype/StillImage" />
        <dc:title></dc:title>
      </cc:Work>
    </rdf:RDF>
  </metadata>
  <defs
     id="defs27" />
  <sodipodi:namedview
     pagecolor="#ffffff"
     bordercolor="#666666"
     borderopacity="1"
     objecttolerance="10"
     gridtolerance="10"
     guidetolerance="10"
     inkscape:pageopacity="1"
     inkscape:pageshadow="2"
     inkscape:window-width="1920"
     inkscape:window-height="1031"
     id="namedview25"
     showgrid="false"
     inkscape:zoom="0.21728802"
     inkscape:cx="738.40334"
     inkscape:cy="1203.2349"
     inkscape:window-x="0"
     inkscape:window-y="25"
     inkscape:window-maximized="1"
     inkscape:current-layer="svg23"
     inkscape:pagecheckerboard="false" />
  <path
     d="m 1297.478,-566.12756 q 8,-32 45,-43 37,11 45,43 l 15.377,-1.9426 q -0.2094,-32.984 32.8926,-52.84 38.5732,1.4528 54.28,30.458 l 14.4108,-5.7056 q -8.4056,-31.896 18.7184,-59.3602 37.7227,-8.1856 60.1492,16.0022 l 12.5394,-9.1102 q -16.0738,-28.8034 3.368,-62.1502 34.5018,-17.3096 62.239,0.541 l 9.8799,-11.9426 q -22.732,-23.901 -12.194,-61.0352 29.1131,-25.346 60.4184,-14.9542 l 6.5992,-14.0242 q -27.9616,-17.497 -26.9896,-56.0854 21.8952,-31.7898 54.8012,-29.5098 l 2.9042,-15.2248 q -31.4344,-9.9934 -40.0894,-47.6112 13.3014,-36.2362 45.7406,-42.21124 l -0.9732,-15.4688 q -32.9322,-1.862 -50.6706,-36.1454 3.8722,-38.4058 33.8062,-52.2604 l -4.7894,-14.7408 q -32.3608,6.3864 -58.0678,-22.4086 -5.8006,-38.1622 19.7476,-59.0258 l -8.305,-13.0866 q -29.7558,14.2336 -61.8162,-7.2638 -15.109,-35.5206 4.448,-62.0824 l -11.2984,-10.61 q -25.2814,21.1862 -61.6806,8.3374 -23.468,-30.6472 -11.131,-61.238 l -13.5822,-7.467 q -19.2182,26.808 -57.6692,23.4148 -30.3524,-23.848 -26.0106,-56.546 l -15.0124,-3.8544 q -11.9476,30.745 -50.0346,37.0208 -35.3296,-15.5506 -39.2558,-48.3008 h -15.4994 q -3.9262,32.7502 -39.2558,48.3008 -38.087,-6.2758 -50.0344,-37.0208 l -15.0126,3.8544 q 4.3418,32.698 -26.0104,56.546 -38.4512,3.3932 -57.6694,-23.4148 l -13.5822,7.467 q 12.337,30.5908 -11.131,61.238 -36.3992,12.8488 -61.6806,-8.3374 l -11.2984,10.61 q 19.557,26.5618 4.448,62.0824 -32.0604,21.4974 -61.8163,7.2638 l -8.30499,13.0866 q 25.54829,20.8636 19.74769,59.0258 -25.70709,28.795 -58.06789,22.4086 l -4.7896,14.7408 q 29.9342,13.8546 33.8062,52.2604 -17.7382,34.2834 -50.6704,36.1454 l -0.9732,15.4688 q 32.4392,5.97504 45.7408,42.21124 -8.6552,37.6178 -40.0896,47.6112 l 2.9042,15.2248 q 32.90599,-2.28 54.8012,29.5098 0.972,38.5884 -26.9896,56.0854 l 6.5992,14.0242 q 31.30519,-10.3918 60.41849,14.9542 10.538,37.1342 -12.194,61.0352 l 9.8798,11.9426 q 27.7372,-17.8506 62.239,-0.541 19.4418,33.3468 3.3682,62.1502 l 12.5392,9.1102 q 22.4264,-24.1878 60.1492,-16.0022 27.124,27.4642 18.7184,59.3602 l 14.4108,5.7056 q 15.7068,-29.0052 54.28,-30.458 33.102,19.856 32.8926,52.84 z"
     stroke-miterlimit="10"
     id="path2"
     inkscape:connector-curvature="0"
     style="fill:#323232;fill-rule:evenodd;stroke:#007aff;stroke-width:16.80179977;stroke-linejoin:round;stroke-miterlimit:10" />
  <path
     d="m 1297.478,-599.6104 q 8,-32 45,-43 37,11 45,43 l 15.3946,-2.116 q -0.9302,-32.9718 31.73,-53.5464 38.5958,0.6096 54.9326,29.2646 l 14.253,-6.1908 q -9.7914,-31.4982 16.1068,-60.1214 37.329,-9.826 60.791,13.3588 l 12.054,-9.8068 q -17.9261,-27.6884 -0.7109,-62.2374 33.2936,-19.5328 62.1408,-3.5378 l 8.9614,-12.6954 q -24.7318,-21.8252 -17.4762,-59.7376 26.7892,-27.791 58.882,-20.172 l 5.2038,-14.6422 q -29.703,-14.3434 -32.945,-52.8074 18.2977,-33.9882 51.2561,-35.3102 l 1.0604,-15.5032 q -32.4714,-5.7976 -45.9708,-41.9608 8.4494,-37.6644 39.829,-47.8294 l -3.1616,-15.2146 q -32.8314,3.1782 -55.5868,-28.0018 -2.0257,-38.5474 25.4476,-56.8016 l -7.1491,-13.7972 q -30.7565,11.918 -61.0802,-11.9664 -12.3507,-36.5714 9.179,-61.561 l -10.6066,-11.3568 q -26.4004,19.774 -62.0438,4.9566 -21.7592,-31.883 -7.7702,-61.7544 l -13.2772,-8.0742 q -20.0864,26.1636 -58.4058,21.512 -29.5544,-24.83 -24.1432,-57.368 l -14.9632,-4.1926 q -12.2828,30.6126 -50.436,36.472 -35.1576,-15.9356 -38.7259,-48.727 h -15.5394 q -3.5682,32.7914 -38.7258,48.727 -38.1532,-5.8594 -50.436,-36.472 l -14.9632,4.1926 q 5.4112,32.538 -24.1432,57.368 -38.3192,4.6516 -58.4058,-21.512 l -13.2772,8.0742 q 13.989,29.8714 -7.7702,61.7544 -35.6434,14.8174 -62.0438,-4.9566 l -10.6066,11.3568 q 21.5296,24.9896 9.1792,61.561 -30.324,23.8844 -61.0804,11.9664 l -7.14909,13.7972 q 27.47329,18.2542 25.44749,56.8016 -22.75528,31.18 -55.58671,28.0018 l -3.16162,15.2146 q 31.37965,10.165 39.82893,47.8294 -13.49932,36.1632 -45.97071,41.9608 l 1.06038,15.5032 q 32.9584,1.322 51.25613,35.3102 -3.242,38.464 -32.94491,52.8074 l 5.2038,14.6422 q 32.09271,-7.619 58.88191,20.172 7.2556,37.9124 -17.4762,59.7376 l 8.9614,12.6954 q 28.8472,-15.995 62.1408,3.5378 17.2152,34.549 -0.711,62.2374 l 12.054,9.8068 q 23.4622,-23.1848 60.791,-13.3588 25.8983,28.6232 16.1068,60.1214 l 14.2531,6.1908 q 16.3368,-28.655 54.9326,-29.2646 32.6602,20.5746 31.73,53.5464 z"
     stroke=""
     stroke-miterlimit="10"
     id="path4"
     inkscape:connector-curvature="0"
     style="fill:#4f4f4f;fill-rule:evenodd;stroke-width:16.80179977;stroke-linejoin:round;stroke-miterlimit:10" />
  <path
     d="m 1297.478,-633.0742 q 8,-32 45,-43 37,11 45,43 l 15.4214,-2.3244 q -1.7876,-32.9364 30.3264,-54.3538 38.5984,-0.3946 55.6752,27.8258 l 14.0514,-6.7668 q -11.4164,-30.9462 12.9578,-60.8776 36.7674,-11.7542 61.4036,10.1788 L 1588.7462,-730 q -20.0306,-26.2064 -5.5616,-61.9924 31.6692,-22.0694 61.6758,-8.3724 l 7.7978,-13.5064 q -26.8652,-19.1378 -23.5872,-57.599 23.7572,-30.4236 56.468,-26.1796 l 3.4704,-15.2048 q -31.3128,-10.369 -39.517,-48.0874 13.7342,-36.0746 46.2426,-41.6608 l -1.1653,-15.5522 q -32.9781,-0.6788 -51.9354,-34.3034 2.491,-38.52 31.9083,-53.4402 l -5.6977,-14.5176 q -31.7128,9.0718 -59.739,-17.4712 -8.9739,-37.5428 14.739,-60.471 l -9.7236,-12.1934 q -27.63,18.0164 -62.2348,0.9136 -19.6411,-33.23 -3.74,-62.129 l -12.8858,-8.7854 q -21.092,25.3598 -59.2006,19.2168 -28.563,-25.9644 -21.8866,-58.2664 l -14.9028,-4.597 q -12.68,30.4502 -50.9062,35.8128 -34.9474,-16.3916 -38.0886,-49.2266 h -15.5958 q -3.1412,32.835 -38.0886,49.2266 -38.2262,-5.3626 -50.9062,-35.8128 l -14.9028,4.597 q 6.6766,32.302 -21.8866,58.2664 -38.1086,6.143 -59.2006,-19.2168 l -12.8858,8.7854 q 15.901,28.899 -3.74,62.129 -34.6048,17.1028 -62.2346,-0.9136 l -9.724,12.1934 q 23.713,22.9282 14.7392,60.471 -28.0262,26.543 -59.7392,17.4712 l -5.6976,14.5176 q 29.4174,14.9202 31.9084,53.4402 -18.9574,33.6246 -51.93542,34.3034 l -1.1654,15.5522 q 32.50842,5.5862 46.24262,41.6608 -8.2042,37.7184 -39.51698,48.0874 l 3.4704,15.2048 q 32.71078,-4.244 56.46798,26.1796 3.278,38.4612 -23.5872,57.599 l 7.7978,13.5064 q 30.0066,-13.697 61.6758,8.3724 14.469,35.786 -5.5616,61.9924 l 11.4324,10.6078 q 24.6362,-21.933 61.4036,-10.1788 24.3742,29.9314 12.958,60.8776 l 14.0512,6.7668 q 17.0768,-28.2204 55.6752,-27.8258 32.114,21.4174 30.3264,54.3538 z"
     stroke=""
     stroke-miterlimit="10"
     id="path6"
     inkscape:connector-curvature="0"
     style="fill:#6c6c6c;fill-rule:evenodd;stroke-width:16.80179977;stroke-linejoin:round;stroke-miterlimit:10" />
  <path
     d="m 1297.478,-666.513 q 8,-32 45,-43 37,11 45,43 l 15.4624,-2.5802 q -2.824,-32.8638 28.5996,-55.2816 38.567,-1.61 56.5238,26.0586 l 13.787,-7.461 q -13.3418,-30.1662 9.1,-61.5726 35.9546,-14.0454 61.9226,6.2934 l 10.6172,-11.5334 q -22.4138,-24.1996 -11.3856,-61.1912 29.446,-24.9588 60.611,-14.1538 l 6.297,-14.3558 q -29.057,-15.6108 -30.6374,-54.1788 19.7464,-33.1676 52.731,-33.0672 l 1.2946,-15.6228 q -32.5514,-5.33 -46.5692,-41.2954 7.907,-37.782 39.137,-48.3972 l -3.8482,-15.1964 q -32.5184,5.528 -57.4546,-23.937 -4.7892,-38.3022 21.302,-58.4826 l -8.5742,-13.1236 q -28.9612,15.7872 -62.1136,-3.9846 -16.9666,-34.6718 1.1584,-62.2306 l -12.3708,-9.6286 q -22.266,24.3356 -60.042,16.3998 -27.3052,-27.2844 -19.1106,-59.235 l -14.8268,-5.0902 q -13.158,30.2468 -51.4638,35.0068 -34.685,-16.94 -37.3088,-49.8202 h -15.6762 q -2.6238,32.8802 -37.3088,49.8202 -38.3058,-4.76 -51.4638,-35.0068 l -14.8267,5.0902 q 8.1945,31.9506 -19.1106,59.235 -37.776,7.9358 -60.042,-16.3998 l -12.3708,9.6286 q 18.125,27.5588 1.1583,62.2306 -33.1522,19.7718 -62.1136,3.9846 l -8.5742,13.1236 q 26.0912,20.1804 21.302,58.4826 -24.9362,29.465 -57.4546,23.937 l -3.8482,15.1964 q 31.23,10.6152 39.1371,48.3972 -14.0179,35.9654 -46.5692,41.2954 l 1.2946,15.6228 q 32.9846,-0.1 52.731,33.0672 -1.5804,38.568 -30.6374,54.1788 l 6.297,14.3558 q 31.165,-10.805 60.611,14.1538 11.0282,36.9916 -11.3856,61.1912 l 10.6172,11.5334 q 25.968,-20.3388 61.9226,-6.2934 22.4418,31.4064 9.1,61.5726 l 13.787,7.461 q 17.9567,-27.6686 56.5237,-26.0586 31.4237,22.4178 28.5996,55.2816 z"
     stroke=""
     stroke-miterlimit="10"
     id="path8"
     inkscape:connector-curvature="0"
     style="fill:#7b7b7b;fill-rule:evenodd;stroke-width:16.80179977;stroke-linejoin:round;stroke-miterlimit:10" />
  <path
     d="m 1297.478,-684.8448 q 8,-32 45,-43 37,11 45,43 l 15.4904,-2.7314 q -3.4272,-32.8064 27.5792,-55.7978 38.531,-2.318 56.993,25.016 l 13.6222,-7.8648 q -14.4408,-29.6558 6.832,-61.8654 35.4144,-15.3566 62.112,4.0146 l 10.1106,-12.0494 q -23.7128,-22.9284 -14.739,-60.4712 28.0262,-26.543 59.739,-17.4712 l 5.3798,-14.7808 q -30.1246,-13.4352 -34.5326,-51.7832 17.258,-34.5278 50.161,-36.8494 v -15.7296 q -32.903,-2.3216 -50.161,-36.8494 4.408,-38.348 34.5326,-51.7832 l -5.3798,-14.7808 q -31.7128,9.0718 -59.739,-17.4712 -8.9738,-37.543 14.739,-60.4712 l -10.1106,-12.0494 q -26.6976,19.3712 -62.112,4.0146 -21.2728,-32.2098 -6.832,-61.8654 l -13.6222,-7.8648 q -18.462,27.334 -56.993,25.016 -31.0064,-22.9914 -27.5792,-55.7978 l -15.4904,-2.7314 q -8,32 -45,43 -37,-11 -45,-43 l -15.4906,2.7314 q 3.4272,32.8064 -27.5791,55.7978 -38.5308,2.318 -56.993,-25.016 l -13.6223,7.8648 q 14.4409,29.6556 -6.832,61.8654 -35.4144,15.3566 -62.112,-4.0146 l -10.1106,12.0494 q 23.7128,22.9282 14.739,60.4712 -28.0262,26.543 -59.739,17.4712 l -5.3798,14.7808 q 30.1246,13.4352 34.5326,51.7832 -17.258,34.5278 -50.161,36.8494 v 15.7296 q 32.903,2.3216 50.161,36.8494 -4.408,38.348 -34.5326,51.7832 l 5.3798,14.7808 q 31.7128,-9.0718 59.739,17.4712 8.9738,37.5428 -14.739,60.4712 l 10.1106,12.0494 q 26.6976,-19.3712 62.112,-4.0146 21.2728,32.2096 6.832,61.8654 l 13.6223,7.8648 q 18.4622,-27.334 56.993,-25.016 31.0063,22.9914 27.5791,55.7978 z"
     stroke=""
     stroke-miterlimit="10"
     id="path10"
     inkscape:connector-curvature="0"
     style="fill:#989898;fill-rule:evenodd;stroke-width:16.80179977;stroke-linejoin:round;stroke-miterlimit:10" />
  <path
     d="m 1297.478,-699.918 q 8,-32 45,-43 37,11 45,43 l 15.5252,-2.9022 q -4.0998,-32.729 26.428,-56.3522 38.475,-3.1088 57.4946,23.8404 l 13.4286,-8.3146 q -15.6462,-29.0378 4.2864,-62.0938 34.754,-16.7976 62.2244,1.4612 l 9.5182,-12.6042 q -25.0794,-21.4248 -18.4338,-59.449 26.339,-28.218 58.5502,-21.1156 l 4.3224,-15.1914 q -31.1254,-10.9184 -38.6646,-48.7756 14.367,-35.8272 46.9686,-40.8404 l -1.4571,-15.727 q -32.9678,1.0626 -53.6735,-31.5146 0.4546,-38.5978 29.0436,-55.0496 l -7.04,-14.1386 q -30.3575,12.9002 -61.4333,-9.9974 -13.5193,-36.1556 7.1961,-61.8242 l -11.672,-10.6404 q -23.6475,22.9954 -60.8964,12.8698 -25.6674,-28.8304 -15.6232,-60.2488 l -14.7278,-5.7056 q -13.7438,29.9852 -52.135,33.9992 -34.3488,-17.6114 -36.3326,-50.5366 h -15.7942 q -1.9838,32.9252 -36.3326,50.5366 -38.3912,-4.014 -52.135,-33.9992 l -14.7278,5.7056 q 10.0442,31.4184 -15.6232,60.2488 -37.2488,10.1256 -60.8962,-12.8698 l -11.6722,10.6404 q 20.7154,25.6686 7.1962,61.8242 -31.0758,22.8976 -61.4334,9.9974 l -7.04,14.1386 q 28.589,16.4518 29.0436,55.0496 -20.7056,32.5772 -53.6734,31.5146 l -1.4572,15.727 q 32.6016,5.0132 46.9686,40.8404 -7.5392,37.8572 -38.6644,48.7756 l 4.3222,15.1914 q 32.2112,-7.1024 58.5502,21.1156 6.6456,38.0242 -18.4338,59.449 l 9.5182,12.6042 q 27.4704,-18.2588 62.2244,-1.4612 19.9326,33.056 4.2864,62.0938 l 13.4286,8.3146 q 19.0196,-26.9492 57.4946,-23.8404 30.5278,23.6232 26.428,56.3522 z"
     stroke=""
     stroke-miterlimit="10"
     id="path12"
     inkscape:connector-curvature="0"
     style="fill:#a7a7a7;fill-rule:evenodd;stroke-width:16.80179977;stroke-linejoin:round;stroke-miterlimit:10" />
  <path
     d="m 1297.478,-718.4294 q 8,-32 45,-43 37,11 45,43 l 15.569,-3.0968 q -4.8548,-32.6256 25.1192,-56.9476 38.393,-3.9966 58.03,22.506 l 13.1988,-8.819 q -16.9706,-28.2844 1.4142,-62.2254 33.9413,-18.3848 62.2254,-1.4144 l 8.8192,-13.1988 q -26.5026,-19.6368 -22.506,-58.03 24.322,-29.974 56.9476,-25.1192 l 3.0968,-15.569 q -32,-8 -43,-45 11,-37 43,-45 l -3.0968,-15.5692 q -32.6256,4.855 -56.9476,-25.119 -3.9966,-38.3932 22.506,-58.03 l -8.8192,-13.199 q -28.2842,16.9706 -62.2254,-1.4142 -18.3847,-33.941 -1.4142,-62.2254 l -13.1988,-8.8192 q -19.637,26.5028 -58.03,22.5062 -29.974,-24.322 -25.1192,-56.9476 l -15.569,-3.0968 q -8,32 -45,43 -37,-11 -45,-43 l -15.5692,3.0968 q 4.8548,32.6256 -25.1192,56.9476 -38.393,3.9966 -58.03,-22.5062 l -13.1988,8.8192 q 16.9706,28.2844 -1.4142,62.2254 -33.9412,18.3848 -62.2254,1.4142 l -8.8192,13.199 q 26.5026,19.6368 22.506,58.03 -24.3218,29.974 -56.9474,25.119 l -3.097,15.5692 q 32,8 43,45 -11,37 -43,45 l 3.097,15.569 q 32.6256,-4.8548 56.9474,25.1192 3.9966,38.3932 -22.506,58.03 l 8.8192,13.1988 q 28.2842,-16.9704 62.2254,1.4144 18.3848,33.941 1.4142,62.2254 l 13.1988,8.819 q 19.637,-26.5026 58.03,-22.506 29.974,24.322 25.1192,56.9476 z"
     stroke=""
     stroke-miterlimit="10"
     id="path14"
     inkscape:connector-curvature="0"
     style="fill:#c4c4c4;fill-rule:evenodd;stroke-width:16.80179977;stroke-linejoin:round;stroke-miterlimit:10" />
  <path
     d="m 1297.4779,-733.2764 q 8,-32 45,-43 37,11 45,43 l 15.6242,-3.321 q -5.7072,-32.4874 23.6198,-57.5856 38.2754,-5.0004 58.5992,20.9792 l 12.9228,-9.3888 q -18.4276,-27.3574 -1.8444,-62.2142 32.9324,-20.1358 62.0662,-4.6688 l 7.9866,-13.8334 q -27.9616,-17.497 -26.9897,-56.0852 21.8953,-31.79 54.8011,-29.5098 l 1.6699,-15.8858 q -32.6611,-4.6114 -47.4682,-40.2588 7.0722,-37.9472 38.0606,-49.2482 l -4.9361,-15.1916 q -31.7127,9.0718 -59.7392,-17.4712 -8.9735,-37.5428 14.7392,-60.471 l -10.6882,-11.8706 q -25.2814,21.1864 -61.6806,8.3374 -23.468,-30.6472 -11.131,-61.238 l -14.5924,-6.497 q -14.4784,29.6374 -52.9568,32.7044 -33.9043,-18.4524 -35.0764,-51.4164 h -15.9733 q -1.172,32.964 -35.0764,51.4164 -38.4784,-3.067 -52.9568,-32.7044 l -14.5924,6.497 q 12.337,30.5908 -11.131,61.238 -36.3992,12.849 -61.6806,-8.3374 l -10.6882,11.8706 q 23.7128,22.9282 14.7392,60.471 -28.0264,26.543 -59.7392,17.4712 l -4.936,15.1916 q 30.9884,11.301 38.0605,49.2482 -14.8072,35.6474 -47.4681,40.2588 l 1.6698,15.8858 q 32.9058,-2.2802 54.8012,29.5098 0.972,38.5882 -26.9898,56.0852 l 7.9868,13.8334 q 29.1336,-15.467 62.066,4.6688 16.5832,34.8568 -1.8444,62.2142 l 12.9228,9.3888 q 20.3238,-25.9796 58.5992,-20.9792 29.327,25.0982 23.6198,57.5856 z"
     stroke=""
     stroke-miterlimit="10"
     id="path16"
     inkscape:connector-curvature="0"
     style="fill:#d3d3d3;fill-rule:evenodd;stroke-width:16.80179977;stroke-linejoin:round;stroke-miterlimit:10" />
  <path
     d="m 1297.478,-752.0138 q 8,-32 45,-43 37,11 45,43 l 15.6945,-3.5822 q -6.6767,-32.302 21.8865,-58.2664 38.1085,-6.143 59.2007,19.217 l 12.5857,-10.037 q -20.0306,-26.2064 -5.5616,-61.9924 31.6693,-22.0694 61.6758,-8.3724 l 6.9847,-14.5038 q -29.4175,-14.9202 -31.9085,-53.4402 18.9575,-33.6246 51.9355,-34.3034 v -16.098 q -32.978,-0.6788 -51.9355,-34.3034 2.491,-38.52 31.9085,-53.4402 l -6.9847,-14.5038 q -30.0065,13.697 -61.6758,-8.3724 -14.469,-35.786 5.5616,-61.9924 l -12.5857,-10.037 q -21.0922,25.36 -59.2007,19.217 -28.5632,-25.9644 -21.8865,-58.2666 l -15.6945,-3.582 q -8,32 -45,43 -37,-11 -45,-43 l -15.6945,3.582 q 6.6765,32.3022 -21.8866,58.2666 -38.1084,6.143 -59.2006,-19.217 l -12.5858,10.037 q 20.0307,26.2064 5.5616,61.9924 -31.6692,22.0694 -61.6758,8.3724 l -6.9846,14.5038 q 29.4173,14.9202 31.9083,53.4402 -18.9573,33.6246 -51.9354,34.3034 v 16.098 q 32.9781,0.6788 51.9354,34.3034 -2.491,38.52 -31.9083,53.4402 l 6.9845,14.5038 q 30.0066,-13.697 61.6758,8.3724 14.469,35.786 -5.5616,61.9924 l 12.5859,10.037 q 21.0922,-25.36 59.2005,-19.217 28.5632,25.9644 21.8867,58.2664 z"
     stroke=""
     stroke-miterlimit="10"
     id="path18"
     inkscape:connector-curvature="0"
     style="fill:#f0f0f0;fill-rule:evenodd;stroke-width:16.80179977;stroke-linejoin:round;stroke-miterlimit:10" />
  <path
     d="m 1297.478,-766.5674 q 8,-32 45,-43 37,11 45,43 l 15.7844,-3.8906 q -7.7873,-32.0524 19.8624,-58.9872 37.8739,-7.4548 59.8287,17.1622 l 12.1686,-10.7804 q -21.7911,-24.762 -9.8255,-61.461 30.0713,-24.2018 60.9512,-12.6076 l 5.7648,-15.2004 q -30.8024,-11.799 -37.2624,-49.855 15.3798,-35.4044 48.1106,-39.4888 l -1.9594,-16.1384 q -32.7574,3.8672 -56.163,-26.8278 -2.8352,-38.4962 24.2484,-57.3238 l -9.235,-13.3792 q -27.208,18.6474 -62.1972,2.3456 -20.4006,-32.7692 -5.1686,-62.0266 l -14.3948,-7.555 q -15.4258,29.1556 -53.983,30.9814 -33.2924,-19.535 -33.4018,-52.5198 h -16.257 q -0.11,32.9848 -33.4018,52.5198 -38.5572,-1.8258 -53.983,-30.9814 l -14.3948,7.555 q 15.232,29.2574 -5.1686,62.0266 -34.9892,16.3018 -62.1972,-2.3456 l -9.235,13.3792 q 27.0836,18.8276 24.2484,57.3238 -23.4056,30.695 -56.163,26.8278 l -1.9594,16.1384 q 32.731,4.0844 48.1106,39.4888 -6.46,38.056 -37.2624,49.855 l 5.7648,15.2004 q 30.88,-11.5942 60.9512,12.6076 11.9656,36.699 -9.8254,61.461 l 12.1686,10.7804 q 21.9548,-24.617 59.8286,-17.1622 27.6498,26.9348 19.8624,58.9872 z"
     stroke=""
     stroke-miterlimit="10"
     id="path20"
     inkscape:connector-curvature="0"
     style="opacity:0.98999999;fill:#ffffff;fill-rule:evenodd;stroke-width:16.80179977;stroke-linejoin:round;stroke-miterlimit:10" />
  <text
     xml:space="preserve"
     style="font-style:normal;font-variant:normal;font-weight:normal;font-stretch:normal;font-size:600px;line-height:1.25;font-family:sans-serif;-inkscape-font-specification:'sans-serif, Normal';font-variant-ligatures:normal;font-variant-caps:normal;font-variant-numeric:normal;font-feature-settings:normal;text-align:start;letter-spacing:0px;word-spacing:0px;writing-mode:lr-tb;text-anchor:start;fill:#007aff;fill-opacity:1;stroke:none;stroke-width:5"
     x="1177.8685"
     y="-871.04675"
     id="text842"><tspan
       sodipodi:role="line"
       id="tspan840"
       x="1177.8685"
       y="-871.04675"
       style="font-style:normal;font-variant:normal;font-weight:normal;font-stretch:normal;font-size:320px;font-family:'Open Sans Condensed';-inkscape-font-specification:'Open Sans Condensed, ';fill:#007aff;fill-opacity:1;stroke-width:5">GC</tspan></text>
</svg>
